<?xml version="1.0" encoding="iso-8859-1"?>
<!-- Generator: Adobe Illustrator 19.0.0, SVG Export Plug-In . SVG Version: 6.00 Build 0)  -->
<svg xmlns="http://www.w3.org/2000/svg" xmlns:xlink="http://www.w3.org/1999/xlink" version="1.1" id="Capa_1" x="0px" y="0px" viewBox="0 0 470 470" style="enable-background:new 0 0 470 470;" xml:space="preserve" width="512px" height="512px">
<g>
	<path d="M79.919,339.424c28.16,0,54.048-16.622,65.994-41.854h6.424c4.142,0,7.5-3.358,7.5-7.5s-3.358-7.5-7.5-7.5H7.5   c-4.142,0-7.5,3.358-7.5,7.5s3.358,7.5,7.5,7.5h6.425C25.871,322.802,51.759,339.424,79.919,339.424z M128.799,297.57   c-10.521,16.409-28.986,26.854-48.88,26.854s-38.358-10.445-48.88-26.854H128.799z" fill="#ff8b38"/>
	<path d="M462.5,282.57H317.663c-4.142,0-7.5,3.358-7.5,7.5s3.358,7.5,7.5,7.5h6.424c11.946,25.232,37.834,41.854,65.994,41.854   s54.048-16.622,65.994-41.854h6.425c4.142,0,7.5-3.358,7.5-7.5S466.642,282.57,462.5,282.57z M390.081,324.424   c-19.894,0-38.358-10.445-48.88-26.854h97.759C428.439,313.979,409.975,324.424,390.081,324.424z" fill="#ff8b38"/>
	<path d="M422.504,452.353h-38.377c-3.591-21.718-22.494-38.338-45.214-38.338h-4.775c-3.589-21.721-22.502-38.338-45.225-38.338   H242.5V91.917h137.166l-57.763,172.775c-1.313,3.928,0.806,8.178,4.735,9.491c3.93,1.315,8.178-0.806,9.491-4.735l53.953-161.377   l53.953,161.377c1.049,3.14,3.974,5.124,7.112,5.124c0.789,0,1.59-0.125,2.379-0.389c3.929-1.313,6.048-5.563,4.735-9.491   L400.496,91.917h12.292c4.142,0,7.5-3.358,7.5-7.5s-3.358-7.5-7.5-7.5H242.5V33.001h36.651c11.775,0,21.355,9.58,21.355,21.355   c0,4.142,3.358,7.5,7.5,7.5h22.707c4.142,0,7.5-3.358,7.5-7.5s-3.358-7.5-7.5-7.5h-15.984   c-3.466-16.46-18.102-28.855-35.578-28.855H242.5v-7.854c0-4.142-3.358-7.5-7.5-7.5s-7.5,3.358-7.5,7.5v7.854h-36.651   c-17.476,0-32.111,12.396-35.578,28.855h-15.984c-4.142,0-7.5,3.358-7.5,7.5s3.358,7.5,7.5,7.5h22.707c4.142,0,7.5-3.358,7.5-7.5   c0-11.775,9.58-21.355,21.355-21.355H227.5v43.916H57.212c-4.142,0-7.5,3.358-7.5,7.5s3.358,7.5,7.5,7.5h12.292L11.741,264.692   c-1.313,3.928,0.806,8.178,4.735,9.491c3.929,1.315,8.178-0.806,9.491-4.735L79.919,108.07l53.953,161.377   c1.049,3.14,3.974,5.124,7.112,5.124c0.789,0,1.59-0.125,2.379-0.389c3.929-1.313,6.048-5.563,4.735-9.491L90.334,91.917H227.5   v283.76h-46.413c-22.722,0-41.635,16.617-45.225,38.338h-4.775c-22.72,0-41.623,16.62-45.214,38.338H47.496   c-4.142,0-7.5,3.358-7.5,7.5s3.358,7.5,7.5,7.5h375.009c4.142,0,7.5-3.358,7.5-7.5S426.646,452.353,422.504,452.353z    M131.087,429.015h11.662c4.142,0,7.5-3.358,7.5-7.5c0-17.004,13.834-30.838,30.838-30.838h107.826   c17.004,0,30.838,13.834,30.838,30.838c0,4.142,3.358,7.5,7.5,7.5h11.662c14.418,0,26.552,9.947,29.911,23.338H101.176   C104.535,438.962,116.669,429.015,131.087,429.015z" fill="#ff8b38"/>
	<path d="M297.251,414.015H172.749c-4.142,0-7.5,3.358-7.5,7.5s3.358,7.5,7.5,7.5h124.502c4.142,0,7.5-3.358,7.5-7.5   S301.393,414.015,297.251,414.015z" fill="#ff8b38"/>
</g>
<g>
</g>
<g>
</g>
<g>
</g>
<g>
</g>
<g>
</g>
<g>
</g>
<g>
</g>
<g>
</g>
<g>
</g>
<g>
</g>
<g>
</g>
<g>
</g>
<g>
</g>
<g>
</g>
<g>
</g>
</svg>
